<svg width="75" height="75" fill="none" xmlns="http://www.w3.org/2000/svg"><path d="M45.384 49.378c-3.454 0-6.837-.75-9.82-2.198-.733-.349-1.43-.75-2.11-1.134-1.221-.68-2.39-1.343-3.646-1.744-1.5-.47-3.035-.4-4.64-.331-.627.035-1.273.07-1.935.07-4.832 0-9.314-2.18-11.704-5.704-1.046-1.552-1.657-3.314-1.744-5.093-.017-.157-.017-.331-.017-.488 0-3.68 2.302-7.169 6.14-9.314 2.72-1.518 5.685-1.692 8.546-1.866l.837-.053c3.192-.21 5.825-.977 8.32-2.424 3.854-2.233 7.709-3.332 11.773-3.332 10.953 0 19.849 7.535 19.849 16.797v.122a14.261 14.261 0 01-1.012 5.18c-2.686 6.89-10.273 11.512-18.837 11.512zM26.913 41.86c1.151 0 2.32.105 3.523.489 1.465.47 2.773 1.203 4.03 1.9.68.385 1.325.75 2.005 1.065 2.686 1.29 5.773 1.988 8.913 1.988 7.727 0 14.511-4.081 16.901-10.168.558-1.43.855-2.93.855-4.448v-.07c0-8.11-7.971-14.703-17.756-14.703-3.68 0-7.186.994-10.727 3.052-2.79 1.622-5.72 2.477-9.244 2.704l-.837.052c-2.756.174-5.338.331-7.64 1.605-3.174 1.779-5.075 4.57-5.075 7.5 0 .122 0 .261.017.383.07 1.43.54 2.79 1.395 4.03 2.006 2.947 5.826 4.778 9.96 4.778.61 0 1.238-.035 1.831-.052.61-.087 1.221-.105 1.849-.105z" fill="#1DB010"/><path d="M45.384 59.215c-3.453 0-6.837-.75-9.82-2.198-.732-.349-1.43-.75-2.11-1.133-1.221-.68-2.39-1.343-3.646-1.745-1.5-.47-3.035-.4-4.64-.331-.627.035-1.272.07-1.935.07-7.221 0-13.134-4.744-13.448-10.797v-9.889c0-.576.454-1.03 1.012-1.047a1.031 1.031 0 011.064.994c.07 1.43.54 2.774 1.378 4.03 2.005 2.947 5.825 4.779 9.959 4.779.61 0 1.238-.035 1.831-.053 1.727-.087 3.524-.174 5.39.419 1.465.47 2.773 1.203 4.029 1.901.68.384 1.325.75 2.006 1.064 2.686 1.29 5.773 1.988 8.913 1.988 7.726 0 14.511-4.081 16.9-10.168.559-1.43.855-2.93.855-4.448 0-.576.471-1.047 1.047-1.047s1.046.471 1.046 1.047v9.75c.018 9.28-8.895 16.814-19.831 16.814zm-18.47-7.518c1.15 0 2.319.105 3.522.489 1.448.47 2.774 1.203 4.03 1.901.68.384 1.325.75 2.005 1.064 2.686 1.29 5.774 1.988 8.913 1.988 9.785 0 17.756-6.593 17.756-14.703v-2.32c-3.314 5.634-10.151 9.28-17.756 9.28-3.453 0-6.837-.75-9.82-2.199-.732-.348-1.43-.75-2.11-1.133-1.221-.68-2.39-1.343-3.646-1.744-1.5-.471-3.035-.402-4.64-.332-.627.035-1.272.07-1.935.07-4.605 0-8.896-1.988-11.355-5.215v4.186c.262 4.918 5.25 8.773 11.355 8.773.61 0 1.238-.035 1.831-.052a32.33 32.33 0 011.85-.053z" fill="#1DB010"/><path d="M23.059 36.68c-2.913 0-5.198-1.71-5.198-3.89s2.285-3.889 5.198-3.889c2.913 0 5.198 1.71 5.198 3.89s-2.285 3.89-5.198 3.89zm0-5.686c-1.831 0-3.105.942-3.105 1.797 0 .854 1.274 1.796 3.105 1.796s3.105-.942 3.105-1.796c0-.855-1.274-1.797-3.105-1.797zm29.772 9.384c-.087 0-.174-.018-.262-.035l-17.18-4.36a1.034 1.034 0 01-.75-1.274c.14-.558.715-.907 1.273-.75l17.18 4.36c.559.14.908.716.75 1.274-.121.47-.54.785-1.01.785zm-1.482-6.558a1.35 1.35 0 01-.262-.035l-11.215-2.843a1.034 1.034 0 01-.75-1.273c.14-.559.715-.907 1.273-.75l11.215 2.843c.558.14.907.715.75 1.273-.122.47-.54.785-1.011.785zm-.541-6.489c-.087 0-.175-.017-.262-.035l-5.668-1.43a1.034 1.034 0 01-.75-1.273c.14-.558.715-.907 1.273-.75l5.668 1.43c.559.14.907.715.75 1.273a1.057 1.057 0 01-1.011.785z" fill="#1DB010"/></svg>