<svg width="75" height="75" fill="none" xmlns="http://www.w3.org/2000/svg"><path d="M45.516 53.12a1.047 1.047 0 01-.816-1.7c.02-.343-.318-1.627-2.157-4.26-1.669-2.392-4.093-5.214-6.825-7.944-2.731-2.731-5.551-5.154-7.943-6.825-2.633-1.838-3.915-2.176-4.259-2.156a1.047 1.047 0 01-1.393-1.557c1.055-1.055 3.038-.553 6.242 1.582 2.623 1.747 5.761 4.402 8.834 7.475 3.074 3.074 5.728 6.211 7.476 8.835 2.135 3.204 2.637 5.187 1.582 6.242a1.044 1.044 0 01-.741.307z" fill="#D2A524"/><path d="M56.406 54.284a1.047 1.047 0 01-1.046-1.046c0-4.959-2.923-7.319-5.376-8.426-4.889-2.207-11.229-1.16-13.863 1.161a1.048 1.048 0 01-1.384-1.57c3.566-3.144 10.943-3.831 16.107-1.5 4.261 1.924 6.609 5.594 6.609 10.335 0 .577-.47 1.046-1.047 1.046zM29.784 41.686a1.047 1.047 0 01-.905-1.568c2.48-4.317 2.158-13.406-2.274-19.547-2.249-3.115-6.382-6.532-13.314-5.121a1.046 1.046 0 11-.418-2.051c6.261-1.275 11.742.837 15.429 5.946 4.505 6.242 5.6 16.233 2.39 21.816a1.046 1.046 0 01-.908.525zM45.515 53.12c-.269 0-.535-.102-.74-.308a1.045 1.045 0 010-1.479l.002-.002a1.049 1.049 0 011.481 0 1.049 1.049 0 01-.743 1.788z" fill="#D2A524"/><path d="M22.86 30.462a1.045 1.045 0 01-.74-1.786l.003-.002a1.049 1.049 0 011.48 0 1.049 1.049 0 01-.742 1.788z" fill="#D2A524"/><path d="M46.256 51.333a1.044 1.044 0 00-1.388-.08.252.252 0 00-.037.003c-.378.002-1.664-.364-4.228-2.155-2.391-1.67-5.213-4.094-7.943-6.825-2.73-2.732-5.154-5.552-6.825-7.944-1.791-2.567-2.157-3.849-2.156-4.23l.004-.034c.326-.41.3-1.01-.08-1.388a1.049 1.049 0 00-1.481 0c-.291.29-.459.655-.511 1.095L9.105 62.905c-.32.845-.12 1.768.518 2.406a2.243 2.243 0 002.405.518L45.15 53.33c.445-.05.811-.221 1.106-.516a1.048 1.048 0 000-1.48zM11.29 63.87a.158.158 0 01-.185-.04.159.159 0 01-.04-.185l11.529-30.55a23.2 23.2 0 001.11 1.827c1.747 2.623 4.401 5.761 7.475 8.834 3.073 3.074 6.21 5.728 8.834 7.476.66.44 1.266.81 1.824 1.111L11.29 63.87zm32.36-28.484a1.046 1.046 0 01-.78-1.744c1.247-1.395 3.002-1.05 4.282-.799 1.268.25 1.912.317 2.32-.14.408-.456.269-1.086-.12-2.32-.393-1.245-.932-2.95.315-4.344 1.247-1.394 3.002-1.05 4.282-.797 1.268.25 1.912.317 2.318-.14a1.046 1.046 0 111.56 1.396c-1.247 1.393-3.002 1.05-4.282.797-1.268-.25-1.912-.318-2.318.14-.408.456-.269 1.086.12 2.32.392 1.245.931 2.95-.316 4.344-1.247 1.394-3.002 1.05-4.282.799-1.268-.25-1.911-.318-2.318.14a1.05 1.05 0 01-.781.348zm-4.586-7.094a1.046 1.046 0 01-1.045-1.013c-.061-1.87 1.448-2.83 2.548-3.534 1.09-.696 1.601-1.09 1.582-1.702-.019-.612-.556-.972-1.688-1.596-1.144-.63-2.71-1.491-2.772-3.361-.06-1.87 1.448-2.83 2.549-3.534 1.09-.696 1.6-1.09 1.581-1.7a1.046 1.046 0 012.092-.068c.06 1.87-1.448 2.83-2.548 3.533-1.09.696-1.602 1.09-1.582 1.7.019.613.556.974 1.688 1.597 1.144.63 2.71 1.491 2.771 3.36.061 1.87-1.447 2.832-2.548 3.535-1.09.695-1.601 1.09-1.582 1.702.02.577-.434 1.06-1.011 1.08l-.035.001zM31.078 13.25a1.044 1.044 0 01-.898-1.58l1.27-2.135a1.046 1.046 0 011.798 1.07l-1.27 2.134a1.046 1.046 0 01-.9.512zM53.32 64.313a1.047 1.047 0 01-.544-1.94l2.669-1.62a1.045 1.045 0 111.084 1.79l-2.668 1.619c-.17.103-.356.151-.54.151zm10.489-12.207a1.044 1.044 0 01-.898-1.58l1.27-2.135a1.046 1.046 0 111.798 1.069l-1.27 2.135a1.048 1.048 0 01-.9.51zM9.92 41.356a1.049 1.049 0 01-.74-1.788l1.758-1.756a1.049 1.049 0 011.48 0 1.047 1.047 0 010 1.481l-1.756 1.756a1.049 1.049 0 01-.741.307zm49.052-25.749c-.269 0-.535-.103-.74-.307l-1.756-1.755a1.049 1.049 0 010-1.48 1.049 1.049 0 011.48 0l1.757 1.756a1.047 1.047 0 01-.741 1.786zM37.313 64.319c-.42 0-.816-.255-.976-.67l-.897-2.316a1.045 1.045 0 111.952-.756l.896 2.317a1.045 1.045 0 01-.974 1.425zm-20.66-38.076c-.243 0-.485-.084-.682-.253l-1.882-1.62a1.045 1.045 0 111.366-1.585l1.881 1.62a1.045 1.045 0 01-.683 1.838zM61 38.056c-.456 0-.877-.301-1.006-.764l-.673-2.391a1.046 1.046 0 112.014-.567l.674 2.391A1.046 1.046 0 0161 38.056z" fill="#D2A524"/></svg>