<svg width="75" height="75" fill="none" xmlns="http://www.w3.org/2000/svg"><path d="M40.845 30.45a.903.903 0 01-.9-.9c0-.495.405-.9.9-.9s.9.405.9.9-.405.9-.9.9zm8.865 24.825a.903.903 0 01-.9-.9v-6.09c0-.135.03-.255.075-.375.016-.03 1.516-3.435 1.516-8.445V32.04c0-.495.404-.9.9-.9.494 0 .9.405.9.9v7.425c0 4.8-1.26 8.175-1.59 9v5.91c0 .495-.405.9-.9.9zm-18.54.015a.903.903 0 01-.9-.9v-5.61c-3.63-2.475-6.434-5.76-7.95-9.3l-3.584-7.575c-.015-.045-.045-.09-.06-.15a2.104 2.104 0 01-.09-.615c0-1.26.975-2.355 1.95-2.79 1.395-.72 4.11-.69 5.865 1.65.405.525 1.86 2.055 3.105 3.345a.907.907 0 01.885-.81c.495 0 .9.405.9.9l.015 2.115c0 .36-.225.69-.555.84a.929.929 0 01-.99-.195c-.165-.165-4.005-4.05-4.8-5.1-1.23-1.635-3-1.455-3.615-1.125-.015.015-.045.015-.06.03-.495.21-.9.735-.9 1.155v.09l3.555 7.5c0 .015.015.015.015.03 1.425 3.36 4.155 6.465 7.68 8.775.255.165.405.45.405.75v6.09a.86.86 0 01-.87.9zm15.302-24.84h-.39a.903.903 0 01-.9-.9c0-.495.405-.9.9-.9h.39c.495 0 .9.405.9.9s-.405.9-.9.9z" fill="#FF785A"/><path d="M30.422 34.335a.904.904 0 01-.9-.855l-.93-19.47v-.045c0-.9.345-1.74.99-2.385.63-.63 1.485-.99 2.385-.99a3.668 3.668 0 013.66 3.63l.9 17.76a.903.903 0 01-.855.945.904.904 0 01-.945-.855l-.9-17.79v-.045a1.9 1.9 0 00-.54-1.32 1.873 1.873 0 00-1.32-.54c-.42 0-.81.165-1.11.465-.285.285-.45.675-.45 1.08l.93 19.44a.903.903 0 01-.855.945c-.03.03-.045.03-.06.03zm10.423-1.395a.903.903 0 01-.9-.9v-3.555c0-.9.345-1.74.99-2.385.63-.63 1.485-.99 2.385-.99.975 0 1.89.375 2.595 1.065.69.69 1.08 1.605 1.08 2.595v3.255c0 .495-.405.9-.9.9a.903.903 0 01-.9-.9V28.77a1.9 1.9 0 00-.54-1.32 1.873 1.873 0 00-1.32-.54c-.42 0-.81.165-1.11.465-.3.3-.45.69-.45 1.11v3.555c-.03.495-.435.9-.93.9z" fill="#FF785A"/><path d="M46.081 32.94c-.045 0-.09 0-.135-.015a.902.902 0 01-.75-1.035l1.92-12.225a3.446 3.446 0 013.435-2.955 3.474 3.474 0 013.45 3.99l-1.8 11.46a.902.902 0 01-1.035.75.902.902 0 01-.75-1.035l1.8-11.46a1.657 1.657 0 00-.39-1.335 1.655 1.655 0 00-1.275-.585c-.84 0-1.545.6-1.665 1.44l-1.92 12.225c-.075.465-.45.78-.885.78zm-10.454 0a.903.903 0 01-.9-.9v-4.395c0-.945.36-1.815 1.035-2.49a3.507 3.507 0 012.49-1.035c.945 0 1.815.36 2.475 1.035a3.507 3.507 0 011.035 2.49v4.395c0 .495-.405.9-.9.9a.903.903 0 01-.9-.9v-4.395c0-.465-.18-.885-.495-1.215-.33-.33-.75-.495-1.215-.495-.45 0-.885.18-1.215.495-.33.33-.495.75-.495 1.215v4.395c-.015.51-.42.9-.915.9zm15.81 29.535h-20.34a.902.902 0 01-.825-.54l-3.15-7.185a.91.91 0 01.075-.855.893.893 0 01.75-.405h23.475c.495 0 .9.405.9.9v7.185a.88.88 0 01-.885.9zm-19.755-1.8h18.855V55.29h-21.21l2.355 5.385z" fill="#FF785A"/></svg>