<svg width="75" height="75" fill="none" xmlns="http://www.w3.org/2000/svg"><path d="M37.228 37.702a1.047 1.047 0 00-1.343.623L26.39 64.273a1.05 1.05 0 00.242 1.1c.621.622 1.888 2.23 1.832 3.231a.714.714 0 01-.016.124l-7.362-2.524 7.915-23.102a1.046 1.046 0 00-.394-1.198s-.002 0-.002-.002L28.6 41.9a.943.943 0 00-.079-.049l-.03-.016-.058-.03-.055-.022c-.01-.003-.019-.009-.027-.012-.004-.002-.008-.002-.01-.004-.025-.008-.05-.014-.074-.02l-.026-.008-.08-.014-.023-.003a1.266 1.266 0 00-.086-.007l-.017-.002c-.032 0-.065 0-.096.002h-.004c-.305.02-.6.174-.788.447l-5.658 8.141a1.93 1.93 0 01-2.348.667l-.73-.318a1.9 1.9 0 01-1.047-1.123 1.907 1.907 0 01.106-1.532l6.977-13.41a1.046 1.046 0 10-1.856-.967l-6.977 13.41a4.036 4.036 0 00-.223 3.197 4.027 4.027 0 002.186 2.343l.73.317a4.028 4.028 0 004.9-1.392l1.381-1.988-5.825 17.002a1.048 1.048 0 00.65 1.33l9.072 3.11a1.04 1.04 0 00.992-.174 2.776 2.776 0 001.071-2.063c.093-1.681-1.235-3.466-1.98-4.325l9.278-25.35a1.033 1.033 0 00-.618-1.335zm3.127-20.414c-.23 0-.464-.036-.694-.116l-3.37-1.155a4.723 4.723 0 01-2.934-5.993l1.02-2.976a4.684 4.684 0 012.392-2.703 4.692 4.692 0 013.601-.23l.935.32a4.723 4.723 0 012.934 5.994l-1.854 5.41a2.146 2.146 0 01-2.03 1.45zm-3.384-3.25l3.37 1.154a.056.056 0 00.066-.031l1.854-5.41a2.629 2.629 0 00-1.632-3.336l-.935-.32a2.608 2.608 0 00-2.004.128 2.594 2.594 0 00-1.331 1.504l-1.02 2.977a2.628 2.628 0 001.632 3.333z" fill="#8475C8"/><path d="M63.28 24.38a1.045 1.045 0 00-1.047-.509l-10.299 1.413-8.82-4.326a.942.942 0 00-.16-.06l-6.51-2.232-.012-.005c-.529-.181-1.068-.378-1.638-.586-1.502-.55-3.054-1.116-4.573-1.446-4.096-.891-6.435 1.594-8.662 4.446a.208.208 0 00-.017.024L11.204 35.14c-.314.428-.26 1.02.125 1.383.074.068 1.715 1.586 3.932 1.586.124 0 .25-.006.378-.014 1.54-.12 2.922-.956 4.104-2.48l.01-.014 3.955-5.282-1.18 3.456c-.188.545.104 1.14.65 1.328l13.35 4.577a1.06 1.06 0 00.8-.05c.25-.122.44-.339.53-.6l3.648-10.64 9.436 4.21a1.06 1.06 0 00.566.08l9.42-1.283c.121-.016.238-.054.346-.11 1.343-.706 2.201-1.686 2.554-2.914.58-2.022-.503-3.913-.548-3.993zm-1.465 3.422c-.181.62-.626 1.125-1.359 1.542l-8.934 1.218-10.208-4.554-.047-.018c-.014-.005-.027-.012-.04-.015l-.006-.002c-.02-.007-.043-.012-.064-.02l-.039-.01a.618.618 0 00-.062-.012l-.04-.007-.056-.005a.415.415 0 00-.047-.004c-.016 0-.032 0-.048.002-.019 0-.036 0-.055.002l-.04.005a.598.598 0 00-.158.03.249.249 0 00-.041.014c-.018.005-.037.01-.054.017a1.4 1.4 0 00-.05.02c-.013.008-.027.013-.041.02-.02.009-.037.02-.056.03l-.031.017a1.16 1.16 0 00-.056.038c-.009.008-.02.013-.028.02l-.05.042-.029.022-.041.042-.03.031a.767.767 0 00-.031.04c-.01.015-.023.027-.034.043l-.024.036c-.01.018-.023.033-.033.05l-.021.039-.028.054-.003.005-.02.047-.015.04-.004.013v.002L36.22 37.352l-11.37-3.898 2.987-8.736a.244.244 0 00.013-.044l.014-.05.012-.058.007-.042.007-.068.001-.031c.002-.025 0-.05 0-.072v-.03a.863.863 0 00-.006-.07l-.004-.03a.525.525 0 00-.012-.062c-.004-.012-.005-.026-.009-.038a1.487 1.487 0 00-.031-.098l-.016-.04c-.007-.02-.016-.037-.024-.054-.006-.01-.01-.02-.018-.031l-.031-.058-.018-.028a.631.631 0 00-.038-.056c-.007-.01-.016-.019-.023-.03-.014-.015-.026-.032-.04-.048-.01-.012-.023-.023-.035-.035l-.036-.037-.047-.04a.131.131 0 01-.028-.024l-.006-.004a.406.406 0 00-.045-.03l-.045-.029c-.006-.003-.013-.005-.018-.009a1.057 1.057 0 00-.279-.11l-.007-.001a1.769 1.769 0 00-.092-.018c-.009-.002-.016-.002-.025-.002a.566.566 0 00-.076-.005h-.034c-.022 0-.045 0-.068.002-.012 0-.022.002-.035.004-.022.001-.043.005-.066.008l-.031.005-.07.016-.023.007-.075.024-.014.006a.758.758 0 00-.078.035l-.009.005c-.026.014-.054.028-.078.043-.004.002-.006.004-.007.006-.026.015-.05.033-.075.05a.963.963 0 00-.077.063l-.02.02c-.018.017-.036.032-.051.05a.16.16 0 00-.028.035c-.01.014-.023.026-.034.04l-7.922 10.58c-.8 1.03-1.674 1.593-2.595 1.67-.766.062-1.469-.208-1.967-.486l9.696-13.17c2.31-2.956 3.884-4.26 6.558-3.677 1.38.3 2.864.843 4.3 1.368.507.185 1.03.375 1.534.55l.037.017 6.615 2.267 9.033 4.43c.187.091.396.126.604.098l9.827-1.348c.15.458.272 1.113.087 1.747zM49.566 71.14a6.503 6.503 0 01-6.496-6.495 6.501 6.501 0 016.496-6.496 6.501 6.501 0 016.495 6.496 6.502 6.502 0 01-6.495 6.495zm0-10.896a4.407 4.407 0 00-4.403 4.403 4.407 4.407 0 004.403 4.402 4.407 4.407 0 004.402-4.403 4.407 4.407 0 00-4.402-4.402z" fill="#8475C8"/></svg>