<svg width="33" height="27" fill="none" xmlns="http://www.w3.org/2000/svg"><path d="M21.781 26.626H1.47a1.228 1.228 0 01-1.22-1.219V11.595C.25 5.55 5.174.626 11.219.626H21.78c6.045 0 10.969 4.924 10.969 10.969v4.062c0 6.045-4.924 10.969-10.969 10.969zM2.688 24.188H21.78c4.697 0 8.532-3.834 8.532-8.53v-4.063c0-4.713-3.835-8.532-8.532-8.532H11.22c-4.696 0-8.531 3.82-8.531 8.532v12.594z" fill="#fff" fill-opacity=".1"/><path d="M10 15.251c-.422 0-.845-.179-1.154-.471a1.709 1.709 0 01-.471-1.154c0-.439.179-.845.471-1.154.601-.6 1.707-.6 2.308 0l.195.244c.065.098.114.195.146.293.049.097.081.195.098.292.016.114.032.228.032.325 0 .098-.016.211-.033.325a1.033 1.033 0 01-.097.293.902.902 0 01-.146.276c-.065.097-.13.179-.195.26a1.709 1.709 0 01-1.154.47zm6.5 0a1.62 1.62 0 01-.617-.13 1.677 1.677 0 01-.537-.341 1.708 1.708 0 01-.471-1.154c0-.211.049-.422.13-.617.081-.212.195-.374.341-.537.163-.146.325-.26.537-.341a1.52 1.52 0 01.926-.098.978.978 0 01.308.098.904.904 0 01.277.146c.097.049.179.13.26.195.146.163.26.325.341.537.081.194.13.406.13.617 0 .423-.179.845-.471 1.154-.081.065-.163.146-.26.195a.904.904 0 01-.276.146.983.983 0 01-.31.098 1.996 1.996 0 01-.308.032zm6.5-.001c-.098 0-.211-.016-.309-.032a.978.978 0 01-.308-.098 1.23 1.23 0 01-.293-.146l-.244-.195a1.678 1.678 0 01-.471-1.154c0-.211.049-.422.13-.617s.195-.374.341-.537l.244-.195a1.23 1.23 0 01.293-.146.983.983 0 01.308-.097 1.681 1.681 0 011.463.438c.292.31.471.732.471 1.154 0 .098-.016.211-.032.325a1.033 1.033 0 01-.098.293 1.23 1.23 0 01-.146.292l-.195.244A1.708 1.708 0 0123 15.25z" fill="#fff" fill-opacity=".1"/></svg>