<svg width="112" height="112" fill="none" xmlns="http://www.w3.org/2000/svg"><g clip-path="url(#clip0_3165_750)"><rect x="28.25" y="13.634" width="55.5" height="55.5" rx="25.172" fill="#fff"/><path d="M61.318 47.41a9.77 9.77 0 01-.781 3.89 10.092 10.092 0 01-2.136 3.161 9.975 9.975 0 01-3.16 2.119 9.648 9.648 0 01-3.873.781c-.834 0-1.668-.104-2.501-.312V51.7a4.97 4.97 0 002.5.677c.684 0 1.326-.127 1.928-.382a5.11 5.11 0 001.598-1.076 4.924 4.924 0 001.06-1.58 4.737 4.737 0 00.398-1.928V32.459h4.967V47.41z" fill="#373737"/><path d="M48.52 24.662a7.767 7.767 0 017.767 7.767 7.767 7.767 0 01-7.767-7.767z" fill="#1DB010"/><path fill-rule="evenodd" clip-rule="evenodd" d="M56 .592c-22.987 0-41.625 18.638-41.625 41.625S56 111.592 56 111.592s41.625-46.388 41.625-69.375C97.625 19.23 78.987.592 56 .592zm0 69.375a27.75 27.75 0 110-55.5 27.75 27.75 0 010 55.5z" fill="#1DB010"/></g><defs><clipPath id="clip0_3165_750"><path fill="#fff" transform="translate(.5 .592)" d="M0 0h111v111H0z"/></clipPath></defs></svg>