<svg width="37" height="38" fill="none" xmlns="http://www.w3.org/2000/svg"><g filter="url(#filter0_b_3165_835)"><rect y=".026" width="37" height="37" rx="18.5" fill="#fff" fill-opacity=".15"/><g clip-path="url(#clip0_3165_835)"><path d="M24.98 27.9c-.136 0-.272-.01-.397-.03-7.979-1.105-14.323-7.448-15.427-15.428a2.897 2.897 0 012.854-3.291h3.438c.896 0 1.646.635 1.802 1.51l.406 2.281a2.903 2.903 0 01-1.166 2.854l-.344.24A16.734 16.734 0 0021 20.86l.219-.302a2.901 2.901 0 012.854-1.177l2.281.406c.875.156 1.51.917 1.51 1.802v3.438a2.91 2.91 0 01-.99 2.177 2.915 2.915 0 01-1.895.698zM12.01 10.714c-.385 0-.74.156-1 .459a1.35 1.35 0 00-.312 1.062c1.01 7.281 6.812 13.083 14.094 14.094.385.052.77-.063 1.062-.313.292-.26.458-.604.458-1v-3.437a.26.26 0 00-.218-.26l-2.282-.407a1.317 1.317 0 00-1.302.542l-.646.906a.786.786 0 01-1.041.219 18.143 18.143 0 01-6.396-6.354.77.77 0 01.219-1.032l.927-.656c.416-.292.625-.802.541-1.302l-.406-2.302a.267.267 0 00-.26-.219H12.01z" fill="#fff"/></g></g><defs><clipPath id="clip0_3165_835"><path fill="#fff" transform="translate(6 6.026)" d="M0 0h25v25H0z"/></clipPath><filter id="filter0_b_3165_835" x="-16" y="-15.974" width="69" height="69" filterUnits="userSpaceOnUse" color-interpolation-filters="sRGB"><feFlood flood-opacity="0" result="BackgroundImageFix"/><feGaussianBlur in="BackgroundImageFix" stdDeviation="8"/><feComposite in2="SourceAlpha" operator="in" result="effect1_backgroundBlur_3165_835"/><feBlend in="SourceGraphic" in2="effect1_backgroundBlur_3165_835" result="shape"/></filter></defs></svg>