<svg width="29" height="30" fill="none" xmlns="http://www.w3.org/2000/svg"><path d="M24.848 20.625l1.775-1.719a1.984 1.984 0 00.044-2.805l-5.146-5.313a4.985 4.985 0 00-7.007-.094l-.792.768c-.14.12-.274.25-.4.387L10.807 9.25a2.206 2.206 0 00-3.046-.122 2.3 2.3 0 00-.04 3.29l6.503 6.713m.231.229l-2.019-.033a2.214 2.214 0 00-2.24 2.063 2.292 2.292 0 002.284 2.358l6.324.101" stroke="#B7B7B7" stroke-width="1.71" stroke-linecap="round" stroke-linejoin="round"/><path d="M23.439 23.179a.855.855 0 10-1.19-1.229.855.855 0 001.19 1.229z" fill="#B7B7B7"/><path d="M12.745 6.742A5.198 5.198 0 005.37 6.66a5.199 5.199 0 00-.074 7.298" stroke="#1DB010" stroke-width="1.71" stroke-linecap="round" stroke-linejoin="round"/></svg>