<svg width="117" height="70" fill="none" xmlns="http://www.w3.org/2000/svg"><path d="M22.755 43.049c0 2.36-.446 4.58-1.338 6.662a17.283 17.283 0 01-3.659 5.414c-1.527 1.526-3.331 2.736-5.413 3.628-2.063.893-4.273 1.339-6.633 1.339-1.428 0-2.855-.179-4.283-.536v-9.16a8.177 8.177 0 002.052.862 8.513 8.513 0 002.23.297 8.39 8.39 0 003.302-.654 8.753 8.753 0 002.737-1.844 8.435 8.435 0 001.814-2.707 8.07 8.07 0 00.684-3.301v-25.61h8.507v25.61zm32.242 0v-8.537c0-1.17-.228-2.27-.684-3.301a8.354 8.354 0 00-1.814-2.737 8.352 8.352 0 00-2.737-1.814 8.07 8.07 0 00-3.301-.684c-1.17 0-2.28.228-3.332.684a8.436 8.436 0 00-2.706 1.814 8.757 8.757 0 00-1.844 2.737 8.386 8.386 0 00-.655 3.301v8.537h17.073zm8.536 17.043h-8.536v-8.537H37.924v8.537h-8.506v-25.58c0-2.36.446-4.57 1.338-6.633.892-2.082 2.102-3.896 3.629-5.443a17.28 17.28 0 015.413-3.658c2.082-.892 4.303-1.338 6.663-1.338 2.36 0 4.57.446 6.633 1.338 2.081.892 3.896 2.112 5.443 3.658 1.546 1.547 2.766 3.361 3.658 5.444.892 2.062 1.338 4.273 1.338 6.632v25.58zm49.732 0h-8.507V29.634a3.92 3.92 0 00-.357-1.665 3.937 3.937 0 00-.922-1.339 3.95 3.95 0 00-1.338-.922 4.234 4.234 0 00-1.666-.327 4.23 4.23 0 00-3.034 1.25 4.23 4.23 0 00-1.22 3.004v30.457h-8.536V29.634c0-.595-.109-1.15-.327-1.665a3.944 3.944 0 00-.922-1.339 3.944 3.944 0 00-1.338-.922 4.23 4.23 0 00-1.666-.327 4.231 4.231 0 00-3.034 1.25 4.23 4.23 0 00-1.22 3.004v30.457h-8.536V29.634c0-1.764.327-3.42.982-4.967.674-1.566 1.586-2.925 2.736-4.075a12.706 12.706 0 014.075-2.736 12.505 12.505 0 014.997-1.011c1.586 0 3.113.287 4.58.862a12.213 12.213 0 013.956 2.44 12.295 12.295 0 013.926-2.44 12.443 12.443 0 014.581-.862c1.765 0 3.421.337 4.967 1.01a12.282 12.282 0 014.075 2.737 12.298 12.298 0 012.737 4.075c.674 1.547 1.011 3.203 1.011 4.967v30.458z" fill="#fff"/><path d="M.834 4.264c7.374 0 13.351 5.977 13.351 13.35-7.373 0-13.35-5.977-13.35-13.35z" fill="#1DB010"/></svg>