<svg width="117" height="69" fill="none" xmlns="http://www.w3.org/2000/svg"><path d="M22.755 42.957c0 2.36-.446 4.58-1.338 6.663a17.282 17.282 0 01-3.659 5.413c-1.527 1.527-3.331 2.736-5.413 3.628C10.282 59.554 8.072 60 5.712 60c-1.428 0-2.855-.178-4.283-.535v-9.161a8.18 8.18 0 002.052.862 8.518 8.518 0 002.23.298c1.17 0 2.271-.218 3.302-.655a8.753 8.753 0 002.737-1.844 8.435 8.435 0 001.814-2.707 8.07 8.07 0 00.684-3.301v-25.61h8.507v25.61zm32.242 0V34.42c0-1.17-.228-2.27-.684-3.301a8.352 8.352 0 00-1.814-2.736 8.35 8.35 0 00-2.737-1.815 8.07 8.07 0 00-3.301-.684c-1.17 0-2.28.228-3.332.684a8.435 8.435 0 00-2.706 1.815 8.755 8.755 0 00-1.844 2.736 8.386 8.386 0 00-.655 3.301v8.537h17.073zM63.533 60h-8.536v-8.536H37.924V60h-8.506V34.42c0-2.36.446-4.57 1.338-6.632.892-2.082 2.102-3.897 3.629-5.443a17.28 17.28 0 015.413-3.659c2.082-.892 4.303-1.338 6.663-1.338 2.36 0 4.57.446 6.633 1.338 2.081.892 3.896 2.112 5.443 3.659 1.546 1.546 2.766 3.36 3.658 5.443.892 2.062 1.338 4.273 1.338 6.632V60zm49.732 0h-8.507V29.543c0-.595-.119-1.15-.357-1.666a3.937 3.937 0 00-.922-1.339 3.95 3.95 0 00-1.338-.922 4.234 4.234 0 00-1.666-.327 4.23 4.23 0 00-3.034 1.25 4.231 4.231 0 00-1.22 3.004V60h-8.536V29.543c0-.595-.109-1.15-.327-1.666a3.944 3.944 0 00-.922-1.339 3.944 3.944 0 00-1.338-.922 4.23 4.23 0 00-1.666-.327 4.231 4.231 0 00-3.034 1.25 4.231 4.231 0 00-1.22 3.004V60h-8.536V29.543c0-1.765.327-3.421.982-4.968A12.933 12.933 0 0174.36 20.5a12.706 12.706 0 014.075-2.736 12.505 12.505 0 014.997-1.011c1.586 0 3.113.287 4.58.862a12.213 12.213 0 013.956 2.44 12.295 12.295 0 013.926-2.44 12.443 12.443 0 014.581-.862c1.765 0 3.421.337 4.967 1.011a12.282 12.282 0 014.075 2.736 12.298 12.298 0 012.737 4.075c.674 1.547 1.011 3.203 1.011 4.968V60z" fill="#fff"/><path d="M.834 4.172c7.374 0 13.351 5.978 13.351 13.351-7.373 0-13.35-5.977-13.35-13.35z" fill="#1DB010"/></svg>