<svg width="60" height="60" fill="none" xmlns="http://www.w3.org/2000/svg"><g clip-path="url(#clip0_3165_494)"><path d="M30 36.223a3.055 3.055 0 01-2.218-.976 2.97 2.97 0 01-.753-2.303v-.041l2.149-13.521A.85.85 0 0130 18.67c.405 0 .767.293.823.711l2.149 13.522v.041a3.024 3.024 0 01-.754 2.303 3.008 3.008 0 01-2.218.976zm-1.31-3.111c-.029.363.083.725.334.99.251.28.6.433.977.433a1.3 1.3 0 00.977-.432c.25-.28.362-.628.334-.991l-1.311-8.275-1.312 8.275z" fill="#1DB010"/><path d="M51.07 32.93a21.063 21.063 0 00-4.424-12.81c.028-.027.07-.055.098-.083l1.2-1.2a.861.861 0 00.25-.586.78.78 0 00-.25-.586l-2.61-2.61a.85.85 0 00-1.186 0l-1.2 1.2a.8.8 0 00-.097.112 20.937 20.937 0 00-8.763-3.963v-1.897h2.414a.84.84 0 00.837-.837V6.698a.84.84 0 00-.837-.838h-12.88a.84.84 0 00-.837.838V9.67c0 .46.377.837.838.837h2.414v1.87a20.945 20.945 0 00-10.94 5.776c-4.074 4.075-6.125 9.419-6.153 14.777 0 .042-.014.084-.014.126 0 .042 0 .083.014.125.028 5.358 2.079 10.689 6.153 14.763 3.99 4.005 9.28 6.195 14.903 6.195 5.623 0 10.911-2.19 14.902-6.167a20.975 20.975 0 006.153-14.763c0-.042.014-.084.014-.14.014-.055 0-.097 0-.139zM24.46 8.832V7.535h11.205v1.297H24.46zm7.953 1.675v1.479h-4.716v-1.48h4.716zm11.889 35.665l-1.465-1.465a.85.85 0 00-1.186 0 .85.85 0 000 1.186l1.465 1.465a19.15 19.15 0 01-12.28 5.08v-2.066a.84.84 0 00-.836-.837.84.84 0 00-.838.837v2.079a19.329 19.329 0 01-12.279-5.079l1.465-1.465a.851.851 0 000-1.186.851.851 0 00-1.186 0l-1.465 1.465c-3.195-3.474-4.884-7.856-5.079-12.28h2.08a.84.84 0 00.836-.836.84.84 0 00-.837-.838h-2.065a19.39 19.39 0 015.08-12.279l1.464 1.466a.827.827 0 00.586.25c.21 0 .433-.083.586-.25a.851.851 0 000-1.187l-1.45-1.465c3.474-3.195 7.855-4.883 12.278-5.079v2.065c0 .46.377.838.837.838a.84.84 0 00.838-.838v-2.065a19.39 19.39 0 0112.279 5.08l-1.48 1.464a.851.851 0 000 1.187.827.827 0 00.587.25.805.805 0 00.586-.25l1.465-1.466c3.195 3.475 4.884 7.856 5.079 12.28h-2.065a.84.84 0 00-.837.837c0 .46.376.837.837.837h2.065a19.262 19.262 0 01-5.065 12.265z" fill="#B7B7B7"/></g><defs><clipPath id="clip0_3165_494"><path fill="#fff" d="M0 0h60v60H0z"/></clipPath></defs></svg>