<svg width="60" height="60" fill="none" xmlns="http://www.w3.org/2000/svg"><path d="M20.595 47.594a2.45 2.45 0 01-1.642-.635c-.76-.707-1.116-1.736-.994-2.895.14-1.35.907-2.635 1.954-3.268a2.408 2.408 0 011.715-.345c.642.127 1.193.547 1.638 1.256a.834.834 0 01-.023.93.84.84 0 01-1.167.203.838.838 0 01-.225-.237c-.131-.207-.332-.46-.55-.504a.783.783 0 00-.513.14c-.598.36-1.073 1.186-1.158 2.006-.038.361-.026 1.037.468 1.497a.752.752 0 00.53.186c.1.001.196-.035.27-.102a1.71 1.71 0 00.188-.313 3.56 3.56 0 01.321-.527 1.719 1.719 0 011.116-.663 1.302 1.302 0 01.977.265c.281.245.47.578.538.945.015.057.029.112.04.14a.286.286 0 00.155.14.312.312 0 00.185.026c.164-.131.511-.609.745-.93.733-1.006 1.425-1.953 2.363-1.674.725.213.802.977.858 1.526.013.198.04.394.08.588.315.13.632.102 1.064-.087.12-.051.24-.108.36-.164.578-.271 1.232-.577 2.004-.546a.838.838 0 01-.069 1.675c-.362-.017-.78.18-1.225.389-.14.063-.267.125-.401.183-.942.41-1.79.409-2.594 0-.527-.27-.723-.78-.815-1.279-.102.14-.2.268-.28.38-.572.784-.945 1.275-1.418 1.476a1.993 1.993 0 01-2.557-1.035 2.889 2.889 0 01-.402.605 2.031 2.031 0 01-1.44.654l-.096-.006z" fill="#1DB010"/><path fill-rule="evenodd" clip-rule="evenodd" d="M12.406 26.276c0-.463.375-.837.837-.837h18.619a.837.837 0 010 1.674H13.244a.837.837 0 01-.838-.837zm0 5.59c0-.463.375-.838.837-.838h18.619a.837.837 0 010 1.675H13.244a.837.837 0 01-.838-.838zm13.034 5.585c0-.462.374-.837.837-.837h5.581a.837.837 0 110 1.674h-5.581a.837.837 0 01-.838-.837zm-13.034 0c0-.462.375-.837.837-.837h9.31a.837.837 0 010 1.674h-9.31a.837.837 0 01-.837-.837z" fill="#B7B7B7"/><path fill-rule="evenodd" clip-rule="evenodd" d="M6.82 7.658c0-.463.375-.838.838-.838h16.76c.223 0 .436.089.593.246l13.028 13.032c.157.157.245.37.245.592v31.652a.837.837 0 01-.837.837H7.657a.837.837 0 01-.837-.837V7.658zm1.675.837v43.01H36.61V21.037L24.072 8.495H8.495z" fill="#B7B7B7"/><path fill-rule="evenodd" clip-rule="evenodd" d="M24.099 6.884a.837.837 0 01.912.182l13.033 13.032a.837.837 0 01-.592 1.43H24.419a.837.837 0 01-.837-.838V7.658c0-.34.204-.644.517-.774zm1.157 2.795v10.174h10.175L25.256 9.679zm19.64 2.747c.462 0 .837.375.837.837v30.795h3.907V13.263a.837.837 0 111.674 0v31.633a.837.837 0 01-.837.837h-5.581a.837.837 0 01-.837-.837V13.263c0-.462.374-.837.837-.837z" fill="#B7B7B7"/><path fill-rule="evenodd" clip-rule="evenodd" d="M44.602 44.111a.837.837 0 011.078.49l2.007 5.356 2.007-5.355a.837.837 0 011.567.587l-2.79 7.447a.837.837 0 01-1.568 0l-2.79-7.447a.837.837 0 01.49-1.078z" fill="#B7B7B7"/><path fill-rule="evenodd" clip-rule="evenodd" d="M47.69 6.822a3.628 3.628 0 00-3.629 3.628v2.744a.837.837 0 00.832.906h6.672a1.814 1.814 0 011.815 1.814v8.505a.837.837 0 101.674 0v-8.505a3.489 3.489 0 00-3.488-3.489h-.249V10.45a3.628 3.628 0 00-3.628-3.628zm-1.954 5.603V10.45a1.953 1.953 0 113.907 0v1.976h-3.907z" fill="#1DB010"/></svg>