<svg width="60" height="60" fill="none" xmlns="http://www.w3.org/2000/svg"><path d="M24.225 37.15a.837.837 0 01-.63-1.388 11.31 11.31 0 018.52-3.873h.963a.838.838 0 010 1.675h-.964a9.635 9.635 0 00-7.257 3.3.84.84 0 01-.632.286zM37.35 52.098h-.04c-2.684 0-5.3-.522-7.775-1.552l-.02-.008-.015-.007a10.465 10.465 0 00-2.8-.726l-2.533-.291a.837.837 0 01.192-1.663l2.533.291c1.117.129 2.214.413 3.26.847l.02.009.016.007a18.489 18.489 0 007.124 1.419h.038c2.46-.006 4.86-.489 7.132-1.439a11.617 11.617 0 013.135-.82l3.663-.422c.531-.063.933-.512.933-1.048v-3.5c0-5.311-4.32-9.631-9.63-9.631h-.962a.837.837 0 11-.001-1.674h.964c6.233 0 11.304 5.071 11.304 11.304v3.501a2.73 2.73 0 01-2.414 2.711l-3.664.423a9.914 9.914 0 00-2.684.702 20.2 20.2 0 01-7.776 1.567z" fill="#B7B7B7"/><path d="M37.347 38.104a.847.847 0 01-.388-.095c-.483-.252-4.72-2.543-4.72-5.32v-2.387a.838.838 0 011.674 0v2.387c0 1.26 2.11 2.85 3.435 3.622 1.467-.847 3.434-2.397 3.434-3.622V30.3a.838.838 0 011.674 0v2.389c0 2.777-4.239 5.068-4.721 5.32a.843.843 0 01-.388.095z" fill="#B7B7B7"/><path d="M37.349 32.468a8.312 8.312 0 01-5.804-2.345A8.312 8.312 0 0129 24.405l-.244-7.034a7.242 7.242 0 01-.003-.17.838.838 0 011.674 0l.003.114.244 7.031a6.647 6.647 0 002.036 4.573c.253.244.528.471.82.675.01.007.022.014.031.022a6.648 6.648 0 003.789 1.178 6.646 6.646 0 003.795-1.182 6.712 6.712 0 002.881-5.264l.233-6.729a.836.836 0 01.836-.808h.03a.837.837 0 01.807.865l-.232 6.729a8.396 8.396 0 01-3.602 6.584 8.32 8.32 0 01-4.748 1.48z" fill="#B7B7B7"/><path d="M45.094 18.485a.835.835 0 01-.58-.232l-3.326-3.188a19.676 19.676 0 01-7.716-.006l-3.35 2.786a.838.838 0 01-1.36-.5l-.221-1.293a.558.558 0 01-.009-.07c-.162-1.858.56-3.86 1.93-5.356C31.602 9.382 33.72 7.9 37.338 7.9c3.636 0 5.755 1.472 6.89 2.706 1.37 1.487 2.095 3.494 1.939 5.367l-.005.043-.237 1.744a.834.834 0 01-.554.677.803.803 0 01-.277.048zm-3.647-5.166a.84.84 0 01.58.233l2.46 2.355.012-.094c.11-1.409-.45-2.93-1.503-4.073-.91-.988-2.629-2.165-5.658-2.165-3.01 0-4.729 1.186-5.641 2.182-.988 1.077-1.555 2.536-1.51 3.857l2.527-2.103c.2-.166.465-.23.719-.173a17.96 17.96 0 007.832 0 .89.89 0 01.182-.02z" fill="#1DB010"/><path d="M37.345 52.098a.838.838 0 01-.837-.837V37.267a.838.838 0 011.674 0V51.26a.837.837 0 01-.837.837z" fill="#B7B7B7"/><path d="M17.562 23.855a.838.838 0 01-.837-.837v-2.134a.838.838 0 011.674 0v2.134a.838.838 0 01-.837.837z" fill="#1DB010"/><path d="M24.262 52.098h-5.837a.838.838 0 01-.837-.837V37.267a.838.838 0 011.674 0v13.157h4.163V37.267a.838.838 0 011.674 0V51.26a.838.838 0 01-.837.837z" fill="#B7B7B7"/><path d="M27.18 33.55H7.944a.837.837 0 01-.837-.82l-.001-.082c-.013-2.457 1.301-5.378 3.348-7.436 1.966-1.976 4.424-3.02 7.108-3.02 2.685 0 5.142 1.044 7.108 3.02 2.047 2.058 3.362 4.977 3.349 7.44l-.001.077a.837.837 0 01-.838.822zM8.832 31.878h17.46c-.214-1.629-1.106-3.77-2.81-5.484-1.148-1.153-3.105-2.527-5.921-2.527-2.816 0-4.774 1.374-5.92 2.527-1.704 1.713-2.595 3.854-2.81 5.483z" fill="#1DB010"/><path d="M24.261 38.104h-6.898a4.966 4.966 0 01-4.96-4.96v-.416a.838.838 0 011.674 0v.416a3.29 3.29 0 003.286 3.286h6.035a3.293 3.293 0 00-3.26-2.866.838.838 0 010-1.675 4.966 4.966 0 014.96 4.96v.416a.838.838 0 01-.837.839z" fill="#B7B7B7"/><path d="M28.173 33.55H6.953a.838.838 0 010-1.673h21.22a.838.838 0 010 1.674zm15.106 7.868a.834.834 0 01-.41-.106l-5.93-3.314a.838.838 0 010-1.462l5.93-3.314a.838.838 0 011.245.73v6.63a.836.836 0 01-.835.836zm-4.216-4.15l3.378 1.887v-3.776l-3.378 1.888z" fill="#1DB010"/><path d="M31.413 41.418a.84.84 0 01-.837-.837v-6.63a.836.836 0 011.245-.729l5.931 3.314a.838.838 0 010 1.462l-5.931 3.314a.827.827 0 01-.408.106zm.838-6.039v3.776l3.378-1.888-3.378-1.888z" fill="#1DB010"/></svg>