<svg width="60" height="60" fill="none" xmlns="http://www.w3.org/2000/svg"><path d="M43.494 53.177h-27a7.819 7.819 0 01-7.814-7.814v-.474a.84.84 0 01.837-.838h40.967a.84.84 0 01.837.837v.475c-.013 4.312-3.516 7.814-7.827 7.814zm-33.126-7.451c.195 3.209 2.86 5.776 6.126 5.776h27.014a6.134 6.134 0 006.125-5.776H10.368zm36.363-3.712H12.977a3.639 3.639 0 01-3.627-3.628 3.639 3.639 0 013.627-3.628h33.768a3.639 3.639 0 013.628 3.628c0 1.996-1.633 3.628-3.642 3.628zM12.977 36.42a1.96 1.96 0 00-1.953 1.953 1.96 1.96 0 001.954 1.954h33.767a1.96 1.96 0 001.953-1.954 1.96 1.96 0 00-1.953-1.953H12.978z" fill="#B7B7B7"/><path d="M44.177 32.776c-.195 0-.39 0-.572-.013-1.674-.098-2.763-.614-3.726-1.06-.934-.433-1.744-.824-3.041-.824h-.014c-1.312 0-2.135.39-3.07.851-.99.475-2.107 1.019-3.795 1.019h-.028c-1.689 0-2.791-.544-3.754-1.033-.92-.46-1.702-.851-3-.851h-.014c-1.284 0-2.093.377-3.028.823-.963.447-2.05.963-3.74 1.06-2.246.14-4.702-.53-7.283-1.995a.836.836 0 01-.335-1.102l1.856-3.753a.843.843 0 01.753-.461h37.242c.321 0 .614.181.754.474l1.856 3.768a.85.85 0 01-.335 1.102c-2.372 1.326-4.619 1.995-6.726 1.995zm-7.353-3.586h.014c1.674 0 2.734.503 3.753.977.907.419 1.758.823 3.126.907 1.73.098 3.642-.363 5.665-1.395l-1.27-2.581h-36.21l-1.27 2.567c2.038 1.033 3.936 1.507 5.666 1.41 1.354-.084 2.219-.49 3.126-.908 1.018-.474 2.079-.977 3.74-.977h.013c1.689 0 2.777.545 3.74 1.02.92.46 1.716.85 3.014.85h.014c1.297 0 2.12-.39 3.055-.85 1.005-.475 2.121-1.02 3.824-1.02z" fill="#1DB010"/><path d="M50.261 23.386H9.726A1.054 1.054 0 018.68 22.34c0-8.554 6.963-15.517 15.516-15.517h11.595c8.554 0 15.517 6.963 15.517 15.517 0 .572-.46 1.046-1.047 1.046zm-39.893-1.674h39.265c-.335-7.34-6.405-13.214-13.828-13.214H24.21c-7.437 0-13.507 5.874-13.842 13.214z" fill="#B7B7B7"/><path d="M39.322 17.805h-.028a.84.84 0 01-.823-.852.84.84 0 01.851-.823.84.84 0 01.837.838.84.84 0 01-.837.837zm-4.675-3.725h-.028c-.46-.015-.838-.392-.824-.852a.84.84 0 01.852-.823.84.84 0 01.837.837.83.83 0 01-.837.837zm-4.633 3.725h-.028A.837.837 0 0130 16.13h.014a.84.84 0 01.837.837.84.84 0 01-.837.837zm-9.25 0h-.028a.837.837 0 01.014-1.674h.014a.84.84 0 01.837.837.84.84 0 01-.837.837zm4.603-3.725h-.028a.837.837 0 01.014-1.674h.014a.84.84 0 01.837.836.84.84 0 01-.837.837z" fill="#B7B7B7"/></svg>