<svg width="60" height="60" fill="none" xmlns="http://www.w3.org/2000/svg"><path d="M25.911 24.865a.836.836 0 01-.753-1.2c.07-.153.153-.307.265-.46a.592.592 0 00-.07-.684 7.162 7.162 0 01-1.632-6.154 7.22 7.22 0 016.153-5.762c.042 0 .07-.042.098-.084a4.774 4.774 0 015.4-3c.223.042.432.098.642.167a4.74 4.74 0 014.87-1.967 4.782 4.782 0 013.823 5.177 5.037 5.037 0 012.232.07c2.33.614 3.907 2.874 3.67 5.274a4.952 4.952 0 01-2.679 3.949 5.008 5.008 0 011.172 3.935.835.835 0 01-.949.711.835.835 0 01-.711-.948 3.308 3.308 0 00-1.633-3.308.845.845 0 01-.405-.892.83.83 0 01.712-.67 3.293 3.293 0 002.833-2.958 3.305 3.305 0 00-4.2-3.475c-.475.14-.977.028-1.34-.307a1.354 1.354 0 01-.419-1.284v-.013c.335-1.675-.767-3.307-2.441-3.642a3.07 3.07 0 00-3.419 1.758.837.837 0 01-.502.446.865.865 0 01-.67-.07 3.365 3.365 0 00-.907-.334 3.084 3.084 0 00-3.502 1.94 1.803 1.803 0 01-1.438 1.157 5.558 5.558 0 00-4.73 4.437 5.55 5.55 0 001.256 4.73c.67.768.753 1.843.223 2.68-.07.098-.111.195-.167.293a.908.908 0 01-.782.488z" fill="#1DB010"/><path d="M34.633 26.135c-.056 0-.112 0-.168-.014a.84.84 0 01-.642-.99 38.27 38.27 0 011.382-4.982c1.465-4.172 3.084-6.279 3.153-6.363a.826.826 0 011.173-.14c.362.28.432.81.153 1.173-.014.028-1.535 2.01-2.902 5.902a37.906 37.906 0 00-1.326 4.772.854.854 0 01-.823.642z" fill="#1DB010"/><path d="M35.986 21.293a.836.836 0 01-.502-.167.856.856 0 01-.168-1.172c.056-.084 1.521-1.968 4.912-2.344.46-.056.88.279.92.74a.822.822 0 01-.739.92c-2.637.293-3.725 1.647-3.767 1.702a.813.813 0 01-.656.321zm1.703 4.172a.837.837 0 01-.726-.419.83.83 0 01.307-1.144 13.293 13.293 0 014.075-1.535.832.832 0 11.321 1.633c-1.27.251-2.47.698-3.558 1.325a.686.686 0 01-.419.14z" fill="#1DB010"/><path d="M35.986 21.28a.835.835 0 01-.837-.754c0-.028-.28-2.484-2.26-4.047a.84.84 0 01-.14-1.172.84.84 0 011.172-.14c2.553 2.024 2.874 5.08 2.888 5.205a.831.831 0 01-.753.907h-.07zM33 24.698a.85.85 0 01-.782-.516c-.67-1.633-1.465-2.833-2.302-3.489a.826.826 0 01-.14-1.172.827.827 0 011.172-.14c1.075.838 2.023 2.247 2.819 4.173a.822.822 0 01-.768 1.144zm-17.915-7.242a.812.812 0 01-.684-.363l-4.856-7.046a1.256 1.256 0 01.042-1.507c.349-.433.92-.614 1.451-.433l2.735.977 1.954-2.902a.845.845 0 011.158-.238l2.93 1.954 2.149-1.94a1.283 1.283 0 011.507-.153c.488.279.725.837.614 1.381l-1.814 8.358a.84.84 0 01-.991.642.84.84 0 01-.642-.99l1.549-7.187-1.744 1.577a.84.84 0 01-1.019.084l-2.777-1.856-1.855 2.749a.835.835 0 01-.977.32l-2.205-.794 4.172 6.055a.829.829 0 01-.209 1.159.87.87 0 01-.488.153z" fill="#1DB010"/><path d="M16.605 26.191a.834.834 0 01-.81-.628l-1.562-6.251a4.54 4.54 0 01.572-3.572 4.585 4.585 0 012.986-2.051 4.605 4.605 0 015.428 3.851l1.116 7.688c.07.46-.25.88-.711.95a.835.835 0 01-.95-.713l-1.116-7.688a2.938 2.938 0 00-2.888-2.498 2.73 2.73 0 00-.572.056 2.863 2.863 0 00-1.898 1.298 2.902 2.902 0 00-.362 2.274l1.562 6.238a.836.836 0 01-.614 1.018.618.618 0 01-.181.028z" fill="#1DB010"/><path d="M15.336 21.098a.85.85 0 01-.824-.67.831.831 0 01.656-.976l2.414-.475a.831.831 0 11.32 1.633l-2.399.474c-.056.014-.112.014-.167.014z" fill="#1DB010"/><path d="M49.856 54.39H12.615a.84.84 0 01-.838-.837V25.62c0-.224.084-.433.252-.586l1.855-1.87a.851.851 0 011.186 0l1.27 1.27 1.27-1.27a.85.85 0 011.186 0l1.27 1.27 1.27-1.27a.85.85 0 011.186 0l1.27 1.27 1.27-1.27a.85.85 0 011.185 0l1.27 1.27 1.27-1.27a.851.851 0 011.186 0l1.27 1.27 1.27-1.27a.862.862 0 01.585-.251.78.78 0 01.586.25l1.27 1.27 1.27-1.27a.861.861 0 01.586-.25c.223 0 .432.083.586.25l1.27 1.27 1.27-1.27a.861.861 0 01.586-.25c.223 0 .432.083.586.25l1.27 1.27 1.27-1.27a.862.862 0 01.585-.25.78.78 0 01.586.25l1.27 1.27 1.27-1.27a.862.862 0 01.586-.25.78.78 0 01.586.25l1.856 1.857a.862.862 0 01.25.586v27.92a.77.77 0 01-.78.866zm-36.404-1.674h35.567V25.967l-1.018-1.018-1.27 1.27a.861.861 0 01-.586.25.781.781 0 01-.586-.25l-1.27-1.27-1.27 1.27a.861.861 0 01-.586.25.781.781 0 01-.586-.25l-1.27-1.27-1.27 1.27a.851.851 0 01-1.186 0l-1.27-1.27-1.269 1.27a.861.861 0 01-.586.25.803.803 0 01-.586-.25l-1.27-1.27-1.27 1.27a.851.851 0 01-1.186 0l-1.27-1.27-1.27 1.27a.851.851 0 01-1.185 0l-1.27-1.27-1.27 1.27a.85.85 0 01-1.186 0l-1.27-1.27-1.27 1.27a.85.85 0 01-1.185 0l-1.27-1.27-1.27 1.27a.85.85 0 01-1.186 0l-1.27-1.27-1.018 1.018v26.75h-.042z" fill="#B7B7B7"/><path d="M38.679 54.39a.636.636 0 01-.32-.069.837.837 0 01-.517-.767V25.619a.84.84 0 01.837-.838.84.84 0 01.837.838V51.53l3.907-3.907V24.642a.84.84 0 01.837-.837.84.84 0 01.838.837v23.33a.781.781 0 01-.252.586l-5.58 5.582a.781.781 0 01-.587.25z" fill="#B7B7B7"/><path d="M49.562 54.39a.803.803 0 01-.586-.25l-5.581-5.582a.851.851 0 010-1.186.85.85 0 011.186 0l5.581 5.581a.85.85 0 010 1.186.834.834 0 01-.6.252z" fill="#B7B7B7"/></svg>